<svg width="140" height="140" viewBox="0 0 140 140" fill="none" xmlns="http://www.w3.org/2000/svg">
<path fill-rule="evenodd" clip-rule="evenodd" d="M70 122.5C76.8944 122.5 83.7213 121.142 90.0909 118.504C96.4605 115.865 102.248 111.998 107.123 107.123C111.998 102.248 115.865 96.4605 118.504 90.0909C121.142 83.7213 122.5 76.8944 122.5 70C122.5 63.1056 121.142 56.2787 118.504 49.9091C115.865 43.5395 111.998 37.752 107.123 32.8769C102.248 28.0018 96.4605 24.1347 90.0909 21.4963C83.7213 18.858 76.8944 17.5 70 17.5C56.0761 17.5 42.7226 23.0312 32.8769 32.8769C23.0312 42.7226 17.5 56.0761 17.5 70C17.5 83.9239 23.0312 97.2774 32.8769 107.123C42.7226 116.969 56.0761 122.5 70 122.5ZM68.6467 91.2333L97.8133 56.2333L88.8533 48.7667L63.77 78.8608L50.7908 65.8758L42.5425 74.1242L60.0425 91.6242L64.5575 96.1392L68.6467 91.2333Z" fill="#2C75FF"/>
</svg>
