<svg width="195" height="69" viewBox="0 0 195 69" fill="none" xmlns="http://www.w3.org/2000/svg">
<g clip-path="url(#clip0_547_1208)">
<path d="M42.7843 30.1197L44.0691 23.8528C45.3283 17.6893 45.7651 13.1539 45.3797 10.2337C44.9942 7.31348 43.4524 4.87135 40.7414 2.92022C38.2745 1.13708 34.9468 0.167978 30.771 0H28.1114C25.1049 0.142135 22.3168 0.749438 19.7343 1.84775C16.7663 3.11404 14.2866 4.83258 12.3079 7.04213C10.3293 9.23876 8.94164 11.5258 8.14504 13.9034C7.95231 14.4978 7.74674 15.1567 7.54116 15.8933L0.358911 51.0652C-0.0136918 54.0758 -0.103631 56.5309 0.101944 58.4303C0.243276 59.7096 0.564486 60.8854 1.07842 61.9449C2.15769 64.1803 3.77658 65.3562 4.70167 66.0023C8.60758 68.7416 13.3872 68.8062 15.8798 68.8449C16.1624 68.8449 16.4066 68.8449 16.5607 68.8449H34.6513C35.5892 64.2837 36.5271 59.7095 37.4779 55.1354C30.771 55.032 24.077 54.9287 17.3702 54.8253C17.1518 54.7994 16.5093 54.6961 16.201 54.3601C16.0468 54.1921 15.9055 53.8562 16.0211 53.1972C16.1496 52.2539 16.3552 51.1427 16.6121 49.8247L22.8693 19.1753C22.8693 19.1753 23.1263 18.0511 23.4089 16.7461C23.5117 16.268 23.5117 16.268 23.5117 16.268C23.8586 15.2343 25.2462 13.8388 26.8523 13.8129C28.6125 13.7742 29.3192 15.3893 29.3192 16.268C29.3192 16.3713 29.3192 16.5522 29.2935 16.7073C29.2935 16.7073 29.2421 17.2629 28.8695 18.6455C28.0857 22.4702 27.302 26.2949 26.5311 30.1197H42.7714H42.7843Z" fill="#2C75FF"/>
<path d="M69.2275 0.0507812C65.8869 18.3862 62.5334 36.7345 59.1929 55.0699C64.101 55.057 69.009 55.044 73.9043 55.0311L71.9128 68.844H38.25C42.8497 45.9216 47.4494 22.9862 52.0363 0.0507812H69.2275Z" fill="#2C75FF"/>
<path d="M116.124 0.0507812L128.099 68.844H106.707L105.589 56.4783H98.0981L96.839 68.844H75.1895L85.8536 0.0507812H116.112H116.124ZM105.023 44.2806C103.97 36.489 102.903 26.8626 101.837 15.3884C99.7042 28.5682 98.3679 38.1946 97.8155 44.2806H105.023Z" fill="#2C75FF"/>
<path d="M195.001 68.999C190.272 66.712 185.506 64.412 180.726 62.1249C176.383 60.0445 172.053 57.99 167.736 55.9355C168.559 60.29 169.394 64.6445 170.216 68.999" fill="#2C75FF"/>
<path d="M120.068 0.0524359L122.445 13.8266H127.906C130.219 26.6963 132.518 39.5659 134.831 52.4356H155.761C153.68 39.5659 151.598 26.7092 149.517 13.8395C153.346 13.8395 157.187 13.8395 161.016 13.8395C160.721 12.5861 160.245 10.7384 159.551 8.54176C158.267 4.47154 157.624 3.63165 157.252 3.19232C155.466 1.09907 153.063 0.452998 152.369 0.272099C152.369 0.272099 151.393 0.0265932 146.472 0.0136719C146.472 0.0136719 120.993 0.0653573 120.068 0.0653573V0.0524359Z" fill="#2C75FF"/>
<path d="M137.683 68.8576C144.608 68.8706 151.533 68.8964 158.459 68.9093C157.713 64.5936 156.968 60.2649 156.223 55.9492H135.293L137.696 68.8576H137.683Z" fill="#2C75FF"/>
</g>
<defs>
<clipPath id="clip0_547_1208">
<rect width="195" height="69" fill="white"/>
</clipPath>
</defs>
</svg>
