<svg width="8" height="8" viewBox="0 0 8 8" fill="none" xmlns="http://www.w3.org/2000/svg">
<g clip-path="url(#clip0_406_1888)">
<path d="M4.00094 7.41427C5.86594 7.41427 7.41608 5.86741 7.41608 3.99913C7.41608 2.13413 5.86251 0.583984 3.99751 0.583984C2.12937 0.583984 0.585938 2.13413 0.585938 3.99913C0.585938 5.86741 2.13265 7.41427 4.00094 7.41427ZM3.99779 4.50141C3.82022 4.50141 3.72322 4.39756 3.71637 4.21998L3.66951 2.56627C3.66279 2.38198 3.80337 2.25156 3.99422 2.25156C4.18179 2.25156 4.32565 2.38541 4.31908 2.56956L4.27208 4.22027C4.26537 4.40098 4.16494 4.50156 3.99765 4.50156M3.99765 5.7337C3.80337 5.7337 3.62251 5.5797 3.62251 5.37198C3.62251 5.16441 3.80008 5.01056 3.99765 5.01056C4.19179 5.01056 4.37251 5.16113 4.37251 5.37198C4.37251 5.58298 4.18837 5.7337 3.99765 5.7337Z" fill="#E94B2C"/>
</g>
<defs>
<clipPath id="clip0_406_1888">
<rect width="8" height="8" fill="white"/>
</clipPath>
</defs>
</svg>
