<svg width="42" height="42" viewBox="0 0 42 42" fill="none" xmlns="http://www.w3.org/2000/svg">
<g clip-path="url(#clip0_395_858)">
<path d="M37.3497 7.65625C38.1615 8.64996 38.8826 9.71996 39.4986 10.8559C38.8805 9.72202 38.1594 8.65203 37.3477 7.65831H37.3497V7.65625Z" fill="#2C75FF"/>
<path d="M40.8867 14.0293C41.1587 14.8272 41.3833 15.6456 41.5543 16.4847C41.3812 15.6477 41.1587 14.8272 40.8867 14.0293Z" fill="#2C75FF"/>
<path d="M41.841 18.2879C41.7936 17.8838 41.738 17.4818 41.668 17.0859C41.738 17.4818 41.7957 17.8838 41.841 18.2879Z" fill="#2C75FF"/>
<path d="M41.9723 20.6153C41.9723 21.8687 41.859 23.0975 41.6427 24.2891H41.6406C41.857 23.0954 41.9703 21.8667 41.9703 20.6132C41.9703 19.8607 41.9291 19.1185 41.8508 18.3887C41.9311 19.1206 41.9723 19.8628 41.9723 20.6153Z" fill="#2C75FF"/>
<path d="M39.3828 30.5757C39.5456 30.2851 39.7022 29.9902 39.8505 29.6934C39.7022 29.9923 39.5476 30.2871 39.3849 30.5778H39.3828V30.5757Z" fill="#2C75FF"/>
<path d="M40.4676 28.3184C40.2801 28.7864 40.0741 29.244 39.8516 29.6914C40.072 29.242 40.278 28.7843 40.4676 28.3184Z" fill="#2C75FF"/>
<path d="M41.9707 20.6135C41.9707 21.867 41.8573 23.0957 41.641 24.2873L37.3865 20.0321L36.2224 18.8652C35.9093 16.1851 34.8812 13.7235 33.3359 11.6742L37.3473 7.66016C38.1591 8.65387 38.8802 9.72387 39.4983 10.8578C39.7043 11.2371 39.898 11.6247 40.0814 12.0164C40.3842 12.67 40.6541 13.3421 40.8869 14.0306C41.1589 14.8285 41.3814 15.649 41.5545 16.4861C41.5957 16.6861 41.6328 16.886 41.6678 17.0881C41.7378 17.4839 41.7935 17.8859 41.8409 18.29C41.8429 18.323 41.847 18.356 41.8512 18.389C41.9295 19.1188 41.9707 19.861 41.9707 20.6135Z" fill="#2C75FF"/>
<path d="M37.3453 7.65638L33.9844 11.0195L33.9858 11.021L37.3468 7.65783L37.3453 7.65638Z" fill="#2C75FF"/>
<path d="M40.9872 26.8902C40.8327 27.3747 40.6597 27.851 40.4701 28.3169C40.4701 28.3169 40.4701 28.3169 40.4701 28.319C40.2806 28.7849 40.0745 29.2426 39.8541 29.692C39.8541 29.692 39.8541 29.692 39.8541 29.6941C39.7057 29.9909 39.5492 30.2858 39.3864 30.5765L36.0879 27.2428L35.1875 26.3336C35.7355 25.0224 36.1002 23.6184 36.2506 22.1484L40.9914 26.8902H40.9872Z" fill="#2C75FF"/>
<path d="M41.6662 39.8228L41.6559 39.8476L41.6476 39.8414L41.6147 39.8084L38.0586 36.2129L41.6662 39.8228Z" fill="white"/>
<path d="M33.3162 37.3223L33.3348 37.3285C30.1887 39.5674 26.3895 40.9405 22.2812 41.0971C26.3792 40.9343 30.1743 39.5633 33.3142 37.3243L33.3162 37.3223Z" fill="#2C75FF"/>
<path d="M34.4053 4.74255C31.0944 2.03148 26.9223 0.334746 22.3711 0.134766C26.9367 0.328561 31.1171 2.02736 34.4342 4.74255L28.7931 10.3873C28.7931 10.3873 28.7828 10.3791 28.7766 10.375L34.4053 4.74255Z" fill="#2C75FF"/>
<path d="M41.6162 39.8093L41.575 39.797L36.7168 34.8944L36.4243 34.6016L30.8594 28.9857C30.8594 28.9857 30.8738 28.9692 30.882 28.9609L36.4572 34.5934C36.4572 34.5934 36.451 34.5975 36.4469 34.6016L38.1034 36.2571L40.5861 38.7682L40.5984 38.7806L41.6162 39.8093Z" fill="#2C75FF"/>
<path d="M41.5737 39.7959L33.3408 37.324C33.3408 37.324 33.3366 37.326 33.3346 37.3281L33.316 37.3219H33.314C30.1741 39.5629 26.379 40.9339 22.2811 41.0968C22.007 41.1071 21.733 41.1133 21.4569 41.1133C21.1129 41.1133 20.7709 41.105 20.4309 41.0865C9.62257 40.536 0.996094 31.5658 0.996094 20.6143C0.996094 9.66284 9.62257 0.690543 20.4309 0.140083C20.7709 0.121528 21.1129 0.113281 21.4569 0.113281C21.7639 0.113281 22.0689 0.119466 22.3717 0.133898C26.9229 0.333878 31.095 2.03061 34.4059 4.74168L27.9716 11.1802C26.1194 9.8958 23.8757 9.1433 21.4569 9.1433C15.1359 9.1433 9.99549 14.2892 9.99549 20.6123C9.99549 26.9353 15.1359 32.0833 21.4569 32.0833C24.8832 32.0833 27.9613 30.5741 30.0628 28.1826L30.8581 28.9846L36.423 34.6005L36.7155 34.8933L41.5737 39.7959Z" fill="#2C75FF"/>
<path d="M0.99738 20.6149C0.99738 31.5663 9.62386 40.5366 20.4322 41.087C9.60944 40.551 0.972656 31.5725 0.972656 20.6149C0.972656 9.6572 9.60944 0.676654 20.4322 0.140625C9.62386 0.691085 0.99738 9.66338 0.99738 20.6149Z" fill="#2C75FF"/>
<path d="M41.5854 39.8064L33.3359 37.3283C33.3359 37.3283 33.3401 37.3263 33.3421 37.3242L41.5751 39.7961L41.5854 39.8064Z" fill="#2C75FF"/>
<path d="M41.6429 39.822L41.6387 39.8282L41.6243 39.8426L41.5872 39.8055L41.5769 39.7952L36.7188 34.8926L40.588 38.7664L40.6004 38.7788L41.6429 39.822Z" fill="#2C75FF"/>
</g>
<defs>
<clipPath id="clip0_395_858">
<rect width="41" height="41" fill="white" transform="translate(0.972656 0.113281)"/>
</clipPath>
</defs>
</svg>
