<svg width="35" height="35" viewBox="0 0 35 35" fill="none" xmlns="http://www.w3.org/2000/svg">
<g clip-path="url(#clip0_720_1349)">
<path d="M20.875 13.125V14.125H21.875H27.7083C28.2167 14.125 28.7042 14.3269 29.0636 14.6864C29.4231 15.0458 29.625 15.5333 29.625 16.0417V18.9583C29.625 19.4667 29.4231 19.9542 29.0636 20.3136C28.7042 20.6731 28.2167 20.875 27.7083 20.875H21.875H20.875V21.875V27.7083C20.875 28.2167 20.6731 28.7042 20.3136 29.0636C19.9542 29.4231 19.4667 29.625 18.9583 29.625H16.0417C15.5333 29.625 15.0458 29.4231 14.6864 29.0636C14.3269 28.7042 14.125 28.2167 14.125 27.7083V21.875V20.875H13.125H7.29167C6.78334 20.875 6.29582 20.6731 5.93638 20.3136C5.57693 19.9542 5.375 19.4667 5.375 18.9583V16.0417C5.375 15.5333 5.57693 15.0458 5.93638 14.6864C6.29582 14.3269 6.78334 14.125 7.29167 14.125H13.125H14.125V13.125V7.29167C14.125 6.78334 14.3269 6.29582 14.6864 5.93638C15.0458 5.57693 15.5333 5.375 16.0417 5.375H18.9583C19.4667 5.375 19.9542 5.57693 20.3136 5.93638C20.6731 6.29582 20.875 6.78334 20.875 7.29167V13.125Z" fill="#0F0F0F" stroke="white" stroke-width="2"/>
</g>
<defs>
<clipPath id="clip0_720_1349">
<rect width="35" height="35" fill="white"/>
</clipPath>
</defs>
</svg>
