<svg width="15" height="17" viewBox="0 0 15 17" fill="none" xmlns="http://www.w3.org/2000/svg">
<path d="M1.69191 7.27219L11.846 1.19238C12.0631 1.06705 12.3093 1.00072 12.56 1.00001C12.8107 0.999288 13.0572 1.0642 13.275 1.18829C13.4929 1.31238 13.6744 1.49132 13.8016 1.70731C13.9288 1.92331 13.9972 2.16882 14 2.41944L14 14.5806C13.9972 14.8312 13.9288 15.0767 13.8016 15.2927C13.6744 15.5087 13.4929 15.6876 13.275 15.8117C13.0572 15.9358 12.8107 16.0007 12.56 16C12.3093 15.9993 12.0631 15.933 11.846 15.8076L1.69191 9.72781C1.48071 9.5999 1.30608 9.4197 1.18488 9.20462C1.06368 8.98955 1 8.74686 1 8.5C1 8.25314 1.06368 8.01045 1.18488 7.79538C1.30608 7.5803 1.48071 7.4001 1.69191 7.27219Z" stroke="black" stroke-width="2" stroke-linecap="round" stroke-linejoin="round"/>
</svg>
