<svg width="167" height="167" viewBox="0 0 167 167" fill="none" xmlns="http://www.w3.org/2000/svg">
<path d="M140.906 28.7031H26.0938C24.0176 28.7031 22.0265 29.5279 20.5584 30.9959C19.0904 32.464 18.2656 34.4551 18.2656 36.5312V130.469C18.2656 132.545 19.0904 134.536 20.5584 136.004C22.0265 137.472 24.0176 138.297 26.0938 138.297H34.8286C35.3223 138.296 35.8056 138.155 36.2224 137.891C36.6393 137.627 36.9726 137.249 37.1836 136.803C39.9321 130.997 44.2727 126.091 49.7004 122.655C55.1282 119.219 61.4199 117.395 67.8438 117.395C74.2676 117.395 80.5593 119.219 85.9871 122.655C91.4148 126.091 95.7554 130.997 98.5039 136.803C98.7149 137.249 99.0482 137.627 99.4651 137.891C99.8819 138.155 100.365 138.296 100.859 138.297H140.906C142.982 138.297 144.974 137.472 146.442 136.004C147.91 134.536 148.734 132.545 148.734 130.469V36.5312C148.734 34.4551 147.91 32.464 146.442 30.9959C144.974 29.5279 142.982 28.7031 140.906 28.7031ZM143.516 130.469C143.516 131.161 143.241 131.825 142.751 132.314C142.262 132.803 141.598 133.078 140.906 133.078H102.47C97.6725 124.063 89.5611 117.264 79.8469 114.114C84.2681 111.485 87.7038 107.478 89.6263 102.706C91.5487 97.9354 91.8516 92.6651 90.4883 87.7052C89.125 82.7453 86.171 78.3702 82.0801 75.252C77.9891 72.1338 72.9876 70.445 67.8438 70.445C62.6999 70.445 57.6984 72.1338 53.6074 75.252C49.5165 78.3702 46.5625 82.7453 45.1992 87.7052C43.8359 92.6651 44.1388 97.9354 46.0612 102.706C47.9837 107.478 51.4194 111.485 55.8406 114.114C46.1264 117.264 38.015 124.063 33.2173 133.078H26.0938C25.4017 133.078 24.738 132.803 24.2486 132.314C23.7593 131.825 23.4844 131.161 23.4844 130.469V36.5312C23.4844 35.8392 23.7593 35.1755 24.2486 34.6861C24.738 34.1968 25.4017 33.9219 26.0938 33.9219H140.906C141.598 33.9219 142.262 34.1968 142.751 34.6861C143.241 35.1755 143.516 35.8392 143.516 36.5312V130.469ZM67.8438 112.203C64.2312 112.203 60.6997 111.132 57.6959 109.125C54.6921 107.118 52.351 104.265 50.9685 100.927C49.586 97.5898 49.2243 93.9172 49.9291 90.3741C50.6339 86.8309 52.3735 83.5762 54.928 81.0218C57.4825 78.4673 60.7371 76.7276 64.2803 76.0228C67.8235 75.3181 71.4961 75.6798 74.8337 77.0623C78.1713 78.4447 81.024 80.7859 83.0311 83.7897C85.0381 86.7934 86.1094 90.3249 86.1094 93.9375C86.1094 96.3362 85.6369 98.7114 84.719 100.927C83.801 103.144 82.4556 105.157 80.7595 106.853C79.0634 108.549 77.0498 109.895 74.8337 110.813C72.6176 111.731 70.2424 112.203 67.8438 112.203ZM127.859 52.1875V114.812C127.859 115.505 127.584 116.168 127.095 116.658C126.606 117.147 125.942 117.422 125.25 117.422H114.812C114.12 117.422 113.457 117.147 112.967 116.658C112.478 116.168 112.203 115.505 112.203 114.812C112.203 114.12 112.478 113.457 112.967 112.967C113.457 112.478 114.12 112.203 114.812 112.203H122.641V54.7969H44.3594V62.625C44.3594 63.3171 44.0845 63.9808 43.5951 64.4701C43.1058 64.9595 42.442 65.2344 41.75 65.2344C41.058 65.2344 40.3942 64.9595 39.9049 64.4701C39.4155 63.9808 39.1406 63.3171 39.1406 62.625V52.1875C39.1406 51.4955 39.4155 50.8317 39.9049 50.3424C40.3942 49.853 41.058 49.5781 41.75 49.5781H125.25C125.942 49.5781 126.606 49.853 127.095 50.3424C127.584 50.8317 127.859 51.4955 127.859 52.1875Z" fill="black"/>
</svg>
