<svg width="29" height="28" viewBox="0 0 29 28" fill="none" xmlns="http://www.w3.org/2000/svg">
<path d="M18.1913 14C18.1913 11.9355 16.5177 10.2618 14.4531 10.2618C12.3885 10.2618 10.7148 11.9355 10.7148 14C10.7148 16.0646 12.3885 17.7383 14.4531 17.7383C16.5177 17.7383 18.1913 16.0646 18.1913 14Z" stroke="black" stroke-width="1.28022" stroke-miterlimit="10"/>
<path d="M17.4593 1.67789L16.1194 4.0271C15.5774 3.93748 15.0227 3.8884 14.4551 3.8884C13.8875 3.8884 13.2965 3.94175 12.7375 4.03776L11.3847 1.69496C11.0134 1.05272 10.1941 0.832948 9.55186 1.20421L5.81576 3.36352C5.17351 3.73478 4.95588 4.55412 5.32501 5.19636L6.67777 7.53703C5.94805 8.41184 5.36555 9.41255 4.96441 10.5029L2.3421 10.5029C1.6017 10.5029 0.999999 11.1024 0.999999 11.845L1 16.1593C1 16.8997 1.59957 17.5014 2.3421 17.5014L4.96441 17.5014C5.37195 18.6067 5.96938 19.6223 6.71404 20.5078L5.37195 22.857C5.00495 23.5014 5.22899 24.3207 5.87123 24.6877L9.61801 26.8235C10.2624 27.1905 11.0817 26.9665 11.4487 26.3242L12.7887 23.975C13.3306 24.0647 13.8854 24.1137 14.453 24.1137C15.0205 24.1137 15.6116 24.0604 16.1706 23.9644L17.5234 26.3072C17.8946 26.9494 18.714 27.1692 19.3562 26.7979L23.0923 24.6386C23.7346 24.2674 23.9543 23.448 23.5831 22.8058L22.2303 20.4651C22.96 19.5882 23.5425 18.5896 23.9437 17.4993L26.7217 17.4993C27.4621 17.4993 28.0638 16.8997 28.0638 16.1572L28.0638 11.8428C28.0638 11.1024 27.4643 10.5007 26.7217 10.5007L23.9437 10.5007C23.5361 9.39548 22.9387 8.37984 22.194 7.49435L23.5361 5.14515C23.9031 4.50078 23.6791 3.68143 23.0368 3.31444L19.2901 1.17647C18.6457 0.809478 17.8263 1.03352 17.4593 1.67576L17.4593 1.67789Z" stroke="black" stroke-width="1.28022" stroke-miterlimit="10"/>
</svg>
