<svg width="130" height="125" viewBox="0 0 130 125" fill="none" xmlns="http://www.w3.org/2000/svg">
<path d="M127.917 20.8842L65.6673 0.134155C65.1328 -0.0447846 64.5547 -0.0447846 64.0202 0.134155L1.77023 20.8842C1.2549 21.0567 0.806782 21.3868 0.489148 21.8277C0.171514 22.2687 0.000412137 22.7983 0 23.3417V75.2168C0 75.9047 0.27327 76.5644 0.759692 77.0508C1.24611 77.5372 1.90584 77.8105 2.59375 77.8105C3.28166 77.8105 3.94138 77.5372 4.42781 77.0508C4.91423 76.5644 5.1875 75.9047 5.1875 75.2168V26.9406L33.6409 36.4272C30.1278 41.1459 27.7305 46.5999 26.6294 52.3788C25.5283 58.1577 25.752 64.1111 27.2837 69.7911C28.8154 75.471 31.6153 80.7297 35.4726 85.1715C39.33 89.6132 44.1443 93.1224 49.5536 95.435C36.0272 99.1571 24.2645 107.84 15.984 120.497C15.641 121.073 15.5342 121.759 15.6858 122.412C15.8375 123.064 16.2359 123.633 16.7976 123.999C17.3592 124.364 18.0406 124.498 18.6988 124.372C19.357 124.247 19.9411 123.871 20.3285 123.324C30.5868 107.587 46.8172 98.5605 64.8437 98.5605C82.8703 98.5605 99.1007 107.587 109.359 123.318C109.746 123.865 110.33 124.24 110.989 124.366C111.647 124.492 112.328 124.358 112.89 123.992C113.452 123.627 113.85 123.058 114.002 122.405C114.153 121.752 114.046 121.066 113.704 120.491C105.455 107.833 93.6603 99.1506 80.1339 95.4286C85.5432 93.1159 90.3575 89.6067 94.2149 85.165C98.0722 80.7232 100.872 75.4646 102.404 69.7846C103.935 64.1046 104.159 58.1512 103.058 52.3723C101.957 46.5934 99.5597 41.1394 96.0465 36.4207L127.917 25.7928C128.432 25.6193 128.878 25.2888 129.195 24.8479C129.511 24.4071 129.682 23.878 129.682 23.3353C129.682 22.7925 129.511 22.2635 129.195 21.8226C128.878 21.3817 128.432 21.0512 127.917 20.8777V20.8842ZM98.5625 59.6543C98.5627 65.0649 97.2609 70.3961 94.7669 75.1977C92.273 79.9992 88.6602 84.1301 84.2337 87.2415C79.8072 90.3529 74.6969 92.3533 69.3345 93.0739C63.9721 93.7945 58.515 93.2141 53.4241 91.3817C48.3333 89.5493 43.7581 86.5186 40.0851 82.5458C36.412 78.573 33.749 73.7745 32.3208 68.5558C30.8927 63.3371 30.7414 57.8513 31.8796 52.5618C33.0179 47.2723 35.4124 42.3343 38.8609 38.165L64.0202 46.5493C64.5543 46.7307 65.1332 46.7307 65.6673 46.5493L90.8266 38.165C95.8337 44.206 98.5704 51.808 98.5625 59.6543ZM64.8437 41.3553L10.7965 23.3417L64.8437 5.32814L118.891 23.3417L64.8437 41.3553Z" fill="black"/>
</svg>
