<svg width="27" height="24" viewBox="0 0 27 24" fill="none" xmlns="http://www.w3.org/2000/svg">
<path d="M19.125 9V7C19.125 5.67392 18.5324 4.40215 17.4775 3.46447C16.4226 2.52678 14.9918 2 13.5 2C12.0082 2 10.5774 2.52678 9.52252 3.46447C8.46763 4.40215 7.875 5.67392 7.875 7V9C6.97989 9 6.12145 9.31607 5.48851 9.87868C4.85558 10.4413 4.5 11.2044 4.5 12V19C4.5 19.7956 4.85558 20.5587 5.48851 21.1213C6.12145 21.6839 6.97989 22 7.875 22H19.125C20.0201 22 20.8786 21.6839 21.5115 21.1213C22.1444 20.5587 22.5 19.7956 22.5 19V12C22.5 11.2044 22.1444 10.4413 21.5115 9.87868C20.8786 9.31607 20.0201 9 19.125 9ZM10.125 7C10.125 6.20435 10.4806 5.44129 11.1135 4.87868C11.7464 4.31607 12.6049 4 13.5 4C14.3951 4 15.2536 4.31607 15.8865 4.87868C16.5194 5.44129 16.875 6.20435 16.875 7V9H10.125V7ZM20.25 19C20.25 19.2652 20.1315 19.5196 19.9205 19.7071C19.7095 19.8946 19.4234 20 19.125 20H7.875C7.57663 20 7.29048 19.8946 7.0795 19.7071C6.86853 19.5196 6.75 19.2652 6.75 19V12C6.75 11.7348 6.86853 11.4804 7.0795 11.2929C7.29048 11.1054 7.57663 11 7.875 11H19.125C19.4234 11 19.7095 11.1054 19.9205 11.2929C20.1315 11.4804 20.25 11.7348 20.25 12V19Z" fill="#A0A0A0"/>
</svg>
